<svg xmlns="http://www.w3.org/2000/svg" viewBox="0 0 327.63 65.43"><defs><style>.cls-1{fill:#14213d;}.cls-2{fill:#fca311;}</style></defs><g id="Layer_2" data-name="Layer 2"><g id="Layer_1-2" data-name="Layer 1"><path class="cls-1" d="M12.19,50a10.7,10.7,0,0,1-9-4.16Q0,41.69,0,33.93T3.21,22a10.7,10.7,0,0,1,9-4.22,8.13,8.13,0,0,1,5.37,1.54A7.56,7.56,0,0,1,20,24h2.28l-1.81,9.93c0-3-.5-5.2-1.51-6.59a5.25,5.25,0,0,0-4.56-2.08,5.4,5.4,0,0,0-4.65,2.27,10.74,10.74,0,0,0-1.64,6.4q0,4.27,1.59,6.45a5.48,5.48,0,0,0,4.7,2.16q3.4,0,4.74-2c.88-1.36,1.33-3.55,1.33-6.56l2.11,9.87H19.83a6.94,6.94,0,0,1-2.43,4.66A8.13,8.13,0,0,1,12.19,50ZM3,63.43l-.3-6.91,10-.29q4.1-.12,5.94-2.27c1.23-1.44,1.85-3.55,1.85-6.35V24.94l.58-6.56h7.36v28.3q0,8.28-3.9,12.23c-2.6,2.62-6.74,4-12.42,4.23Z"/><path class="cls-1" d="M52.88,50q-8.06,0-12.45-4.18T36,33.84Q36,26.24,39.77,22T50.3,17.79c4.44,0,7.86,1.3,10.29,3.9S64.22,28.06,64.22,33q0,2.11-.18,4H41.25V31.53H56.43a6.73,6.73,0,0,0-1.6-4.81,5.91,5.91,0,0,0-4.47-1.67,5.74,5.74,0,0,0-4.82,2.22,10.07,10.07,0,0,0-1.71,6.28q0,4.39,2.53,6.68c1.69,1.52,4.1,2.29,7.22,2.29a40.63,40.63,0,0,0,4.16-.22c1.37-.15,2.77-.35,4.19-.6l.77,7.5a49.12,49.12,0,0,1-5.45.67C55.61,50,54.15,50,52.88,50Z"/><path class="cls-1" d="M69.55,25.67V18.38H98.67v7.29ZM77,34.28V9H84.9V34.28ZM92.17,50q-8,0-11.6-3.23T77,36.48v-4H84.9v3.28q0,3.54,1.83,5.16t6,1.61c.9,0,1.86-.06,2.89-.16s2.19-.25,3.5-.43l.7,7.41c-1.29.24-2.54.41-3.76.53S93.55,50,92.17,50Z"/><path class="cls-2" d="M118.5,65.43V58.11h12.07v7.32Zm1.76-23.73V34.38h17.63V41.7Zm13.33-11.51a4.83,4.83,0,0,1-5.07-5.07,5.07,5.07,0,1,1,10.14,0,4.83,4.83,0,0,1-5.07,5.07ZM130,65.43V36.13h7.91v29.3Zm7.33,0V58.11h9.78v7.32Z"/><path class="cls-2" d="M144,16.67V9.38h29.12v7.29Zm7.44,8.61V0h7.91V25.28ZM166.64,41q-8,0-11.6-3.23t-3.58-10.31v-4h7.91v3.28q0,3.54,1.83,5.16t6,1.61c.9,0,1.86-.06,2.89-.16s2.19-.25,3.5-.43l.7,7.41c-1.29.24-2.54.41-3.76.53S168,41,166.64,41Z"/><path class="cls-1" d="M205.28,52a10.7,10.7,0,0,1-9-4.16q-3.21-4.17-3.21-11.93T196.3,24a10.7,10.7,0,0,1,9-4.22,7.64,7.64,0,0,1,5.17,1.54,7.6,7.6,0,0,1,2.3,4.67h2.58l-1.82,9.93c0-3-.5-5.2-1.51-6.59a5.23,5.23,0,0,0-4.55-2.08,5.42,5.42,0,0,0-4.66,2.27,10.81,10.81,0,0,0-1.64,6.4q0,4.27,1.6,6.45a5.47,5.47,0,0,0,4.7,2.16q3.39,0,4.73-2t1.33-6.56l2.11,9.87h-2.75a7,7,0,0,1-2.43,4.66A8.16,8.16,0,0,1,205.28,52Zm9.43-.3-1.14-6.15V7.48h7.94v44Zm6.8-44.24v45l-6.8.29-1.14-7.15m7.94-37.09v45l-6.8.29-1.14-7.15m7.94-37.09v45l-6.8.29-1.14-7.15"/><path class="cls-1" d="M243.51,52q-6.7,0-10.4-4.22t-3.69-11.9q0-7.69,3.69-11.91t10.4-4.2q6.72,0,10.4,4.2t3.7,11.91q0,7.68-3.7,11.9T243.51,52Zm0-7.53a5.08,5.08,0,0,0,4.43-2.24,11.12,11.12,0,0,0,1.55-6.35,11.11,11.11,0,0,0-1.55-6.36,5.51,5.51,0,0,0-8.84,0,11,11,0,0,0-1.56,6.36,11,11,0,0,0,1.56,6.35A5.09,5.09,0,0,0,243.51,44.49Z"/><path class="cls-1" d="M265.52,51.43v-31h7.09l.85,6.56V51.43Zm18.36,0V33.18a7.07,7.07,0,0,0-1.15-4.34,3.91,3.91,0,0,0-3.3-1.52q-6,0-6,8.61L271.64,26h2.58a7.39,7.39,0,0,1,2.14-4.67,7.44,7.44,0,0,1,5.15-1.54,9.75,9.75,0,0,1,7.62,3c1.8,2,2.69,4.8,2.69,8.43V51.43Z"/><path class="cls-1" d="M316.29,52q-8.06,0-12.45-4.18t-4.4-12q0-7.61,3.74-11.83t10.53-4.22q6.65,0,10.28,3.9T327.62,35c0,1.41-.05,2.75-.17,4H304.66V33.53h15.17a6.73,6.73,0,0,0-1.59-4.81,5.92,5.92,0,0,0-4.47-1.67A5.74,5.74,0,0,0,309,29.27a10.07,10.07,0,0,0-1.72,6.28q0,4.39,2.54,6.68c1.69,1.52,4.1,2.29,7.22,2.29a40.79,40.79,0,0,0,4.16-.22c1.37-.15,2.76-.35,4.19-.6l.76,7.5a48.83,48.83,0,0,1-5.45.67C319,52,317.56,52,316.29,52Z"/></g></g></svg>